<svg width="76" height="49" viewBox="0 0 76 49" fill="none" xmlns="http://www.w3.org/2000/svg">
<circle cx="67" cy="34" r="3.85" stroke="white" stroke-width="0.3"/>
<circle cx="70" cy="19" r="3.85" stroke="white" stroke-width="0.3"/>
<path d="M50.5653 16.0936L46.9693 17.4025L44.0378 14.9427L44.7023 11.174L48.2983 9.86516L51.2298 12.325L50.5653 16.0936Z" stroke="white" stroke-width="0.3"/>
<path d="M37 46C37 43.7909 35.2091 42 33 42C30.7909 42 29 43.7909 29 46" stroke="white" stroke-width="0.3"/>
<path d="M56.85 40.2043L51.3 37L56.85 33.7957V40.2043Z" stroke="white" stroke-width="0.3"/>
<circle cx="43" cy="38" r="3.85" stroke="white" stroke-width="0.3"/>
<rect x="59.4279" y="28.0614" width="7.7" height="7.7" transform="rotate(-160 59.4279 28.0614)" stroke="white" stroke-width="0.3"/>
<rect x="25.1608" y="22.0593" width="7.7" height="7.7" transform="rotate(-130 25.1608 22.0593)" stroke="white" stroke-width="0.3"/>
<path d="M17.3699 46.1122L16.257 39.801L22.2791 41.9928L17.3699 46.1122Z" stroke="white" stroke-width="0.3"/>
<path d="M30.0121 36.4682L23.99 34.2763L28.8993 30.157L30.0121 36.4682Z" stroke="white" stroke-width="0.3"/>
<path d="M40.2999 28.404L36.7039 27.0951L36.0394 23.3265L38.9708 20.8667L42.5669 22.1755L43.2314 25.9442L40.2999 28.404Z" stroke="white" stroke-width="0.3"/>
<path d="M6.86667 15.2998L8.17551 11.7038L11.9442 11.0393L14.404 13.9708L13.0951 17.5668L9.32649 18.2313L6.86667 15.2998Z" stroke="white" stroke-width="0.3"/>
<rect x="15.7567" y="35.0939" width="7.7" height="7.7" transform="rotate(-170 15.7567 35.0939)" stroke="white" stroke-width="0.3"/>
<rect x="64.2113" y="5.16079" width="7.7" height="7.7" transform="rotate(-40 64.2113 5.16079)" stroke="white" stroke-width="0.3"/>
<path d="M1 46L3.52089 43.3384L7.50033 44.0401L8.2296 45.7217" stroke="white" stroke-width="0.3"/>
</svg>
